<?xml version="1.0" encoding="UTF-8" standalone="no"?>
<!-- Created with Inkscape (http://www.inkscape.org/) -->

<svg
   xmlns:dc="http://purl.org/dc/elements/1.1/"
   xmlns:cc="http://creativecommons.org/ns#"
   xmlns:rdf="http://www.w3.org/1999/02/22-rdf-syntax-ns#"
   xmlns:svg="http://www.w3.org/2000/svg"
   xmlns="http://www.w3.org/2000/svg"
   xmlns:xlink="http://www.w3.org/1999/xlink"
   xmlns:sodipodi="http://sodipodi.sourceforge.net/DTD/sodipodi-0.dtd"
   xmlns:inkscape="http://www.inkscape.org/namespaces/inkscape"
   width="500"
   height="500"
   viewBox="0 0 500.00001 500.00001"
   id="svg2"
   version="1.1"
   inkscape:version="0.91 r13725"
   sodipodi:docname="character_walk_1.svg">
  <defs
     id="defs4" />
  <sodipodi:namedview
     id="base"
     pagecolor="#ffffff"
     bordercolor="#666666"
     borderopacity="1.0"
     inkscape:pageopacity="0.0"
     inkscape:pageshadow="2"
     inkscape:zoom="3.959798"
     inkscape:cx="205.89558"
     inkscape:cy="230.92267"
     inkscape:document-units="px"
     inkscape:current-layer="layer1"
     showgrid="false"
     units="px"
     inkscape:window-width="1366"
     inkscape:window-height="719"
     inkscape:window-x="0"
     inkscape:window-y="25"
     inkscape:window-maximized="1"
     inkscape:object-paths="true"
     inkscape:snap-nodes="true" />
  <metadata
     id="metadata7">
    <rdf:RDF>
      <cc:Work
         rdf:about="">
        <dc:format>image/svg+xml</dc:format>
        <dc:type
           rdf:resource="http://purl.org/dc/dcmitype/StillImage" />
        <dc:title />
      </cc:Work>
    </rdf:RDF>
  </metadata>
  <g
     inkscape:label="Layer 1"
     inkscape:groupmode="layer"
     id="layer1"
     transform="translate(0,-552.36216)">
    <path
       style="fill:none;stroke:#008080;stroke-width:10.13004017;stroke-miterlimit:4;stroke-dasharray:none;stroke-opacity:1"
       d="M -482.2055,543.63308 -498.30342,520.715 c -7.20941,3.99481 -14.81919,9.06495 -22.12881,14.74444 -10.11712,7.8668 -19.11587,16.47833 -25.45526,24.35835 -0.18365,-0.0194 4.24946,-6.60712 4.24946,-6.60712 -2.97395,0.42498 -7.25007,6.67783 -8.51971,13.17003 -2.56973,5.10629 -5.76836,13.01482 -3.98681,15.26604 0.0271,0.0267 0.0547,0.0536 0.0824,0.0796 -0.27097,10.39408 0.9862,23.25728 3.55551,36.3633 3.39276,17.29544 8.52731,32.46057 13.85069,42.31519 a 25.253813,20.203051 67.089639 0 0 -2.08015,25.89343 25.253813,20.203051 67.089639 0 0 28.44051,15.3969 25.253813,20.203051 67.089639 0 0 8.7783,-31.12673 25.253813,20.203051 67.089639 0 0 -15.48307,-15.4978 c 0.8516,-10.62174 -0.18412,-25.23243 -3.30726,-41.15428 -2.54691,-12.96683 -6.21947,-25.36377 -10.39454,-35.09078 9.28425,-4.24715 19.91674,-10.8835 30.066,-18.76686 6.75894,-5.25229 13.0683,-10.87526 18.43063,-16.42569 z"
       id="path4157"
       inkscape:connector-curvature="0" />
    <text
       xml:space="preserve"
       style="font-style:normal;font-weight:normal;font-size:40px;line-height:125%;font-family:sans-serif;letter-spacing:0px;word-spacing:0px;fill:#000000;fill-opacity:1;stroke:none;stroke-width:1px;stroke-linecap:butt;stroke-linejoin:miter;stroke-opacity:1"
       x="-156.57364"
       y="588.70215"
       id="text4159"
       sodipodi:linespacing="125%"><tspan
         sodipodi:role="line"
         x="-156.57364"
         y="588.70215"
         id="tspan4163">arm</tspan></text>
    <path
       id="path4183"
       d="m -284.41218,523.95384 a 32.321087,63.295462 0 0 0 -32.32226,63.29492 32.321087,63.295462 0 0 0 22.0332,59.91992 11.222599,25.587528 0 0 0 -0.48437,7.41602 11.222599,25.587528 0 0 0 1.09765,10.96484 37.883968,78.29007 0 0 0 -26.63867,74.67579 37.883968,78.29007 0 0 0 37.88477,78.28906 37.883968,78.29007 0 0 0 37.88281,-78.28906 37.883968,78.29007 0 0 0 -28.65039,-75.83008 11.222599,25.587528 0 0 0 0.86914,-9.81055 11.222599,25.587528 0 0 0 -0.57812,-8 32.321087,63.295462 0 0 0 21.14648,-56.24414 21.547393,11.671504 0 0 0 1.875,0.0508 21.547393,11.671504 0 0 0 21.54883,-11.67187 21.547393,11.671504 0 0 0 -21.54883,-11.67188 21.547393,11.671504 0 0 0 -3.5,0.16016 32.321087,63.295462 0 0 0 -30.61524,-43.25391 z"
       style="fill:none;stroke:#008080;stroke-width:8.88784599;stroke-miterlimit:4;stroke-dasharray:none;stroke-opacity:1"
       inkscape:connector-curvature="0" />
    <path
       transform="matrix(0.56214528,0.8270385,-0.8270385,0.56214528,0,0)"
       id="ellipse4197"
       style="fill:#e6e6e6;stroke:#008080;stroke-width:10;stroke-miterlimit:4;stroke-dasharray:none;stroke-opacity:1"
       ry="15.152288"
       rx="56.063465"
       cy="710.17828"
       cx="707.8974" />
    <path
       style="fill:none;stroke:#008080;stroke-width:10;stroke-miterlimit:4;stroke-dasharray:none;stroke-opacity:1"
       d="m -575.85789,751.93733 a 56.063465,15.152288 39.000312 0 1 20.45907,14.51575 56.063465,15.152288 39.000312 0 1 34.03359,47.0576 l 0,0 a 56.063465,15.152288 39.000312 0 1 -53.10501,-23.50663 56.063465,15.152288 39.000312 0 1 -19.7282,-18.36462"
       id="path4224"
       inkscape:connector-curvature="0" />
    <path
       sodipodi:nodetypes="ccccccccccccccc"
       inkscape:connector-curvature="0"
       id="path4238"
       d="m -521.543,610.81032 c -7.67804,2.99695 -15.89581,7.00627 -23.89801,11.65945 -11.0765,6.44623 -21.14452,13.77938 -28.47885,20.74287 -0.1794,-0.0437 5.09373,-5.98067 5.09373,-5.98067 -3.00405,0.0243 -8.07787,5.64978 -10.20264,11.91448 -3.22817,4.71766 -7.45278,12.12933 -5.98764,14.59817 0.0227,0.0302 0.0465,0.0602 0.0701,0.0899 -1.65569,10.26494 -2.12556,23.17979 -1.3283,36.5115 1.89223,31.5778 10.2504,57.153 18.66862,57.1243 8.41778,-0.031 13.70785,-25.652 11.81612,-57.2284 -0.79363,-13.19073 -2.77843,-25.96735 -5.61803,-36.16455 9.76801,-2.97012 21.1911,-8.12864 32.30165,-14.587 7.39944,-4.30328 14.40317,-9.03424 20.45827,-13.81938 l -12.89544,-24.86048 z"
       style="fill:none;stroke:#008080;stroke-width:10.13004017;stroke-miterlimit:4;stroke-dasharray:none;stroke-opacity:1" />
    <path
       inkscape:connector-curvature="0"
       id="path4241"
       d="m -502.35399,546.75255 -27.37696,5.90625 c 0.87314,8.19583 2.58089,17.17907 4.9668,26.12305 3.30772,12.3815 7.73681,24.02277 12.52734,32.92969 -0.0893,0.16164 -4.43164,-6.48633 -4.43164,-6.48633 -0.76627,2.90479 3.32866,9.27777 8.81446,12.97461 3.70312,4.35484 9.74259,10.37986 12.50976,9.61523 0.0351,-0.0145 0.0707,-0.0295 0.10547,-0.0449 9.46866,4.29591 21.80655,8.14544 34.87891,10.88086 17.25186,3.60782 33.21952,4.78198 44.36914,3.71485 a 25.253813,20.203051 0 0 0 23.04101,11.99609 25.253813,20.203051 0 0 0 25.25391,-20.20313 25.253813,20.203051 0 0 0 -25.25391,-20.20312 25.253813,20.203051 0 0 0 -20.30273,8.22851 c -9.45232,-4.91936 -23.31364,-9.65314 -39.19531,-12.9746 -12.93543,-2.70186 -25.78413,-4.14503 -36.36914,-4.08594 -0.29785,-10.20524 -2.27156,-22.58246 -5.58203,-35 -2.20677,-8.27044 -4.93,-16.27105 -7.95508,-23.3711 z"
       style="fill:none;stroke:#008080;stroke-width:10.13004017;stroke-miterlimit:4;stroke-dasharray:none;stroke-opacity:1" />
    <ellipse
       style="fill:none;stroke:#008080;stroke-width:10;stroke-miterlimit:4;stroke-dasharray:none;stroke-opacity:1"
       id="path4271"
       transform="matrix(-0.87145632,0.49047312,-0.49047312,-0.87145632,0,0)"
       ry="16.162441"
       rx="56.063465"
       cy="-619.48138"
       cx="723.64301" />
    <path
       cx="661.30731"
       cy="781.45557"
       rx="56.063465"
       ry="16.162441"
       transform="matrix(0.62596443,0.77985161,-0.77985161,0.62596443,0,0)"
       id="path4277"
       style="fill:none;stroke:#008080;stroke-width:10;stroke-miterlimit:4;stroke-dasharray:none;stroke-opacity:1" />
    <path
       style="fill:none;fill-rule:evenodd;stroke:#000000;stroke-width:1px;stroke-linecap:butt;stroke-linejoin:miter;stroke-opacity:1"
       d="m -90.913731,612.9458 31.31473,30.30458 -8.08122,41.41626 -34.345189,-37.37565 z"
       id="path4344"
       inkscape:connector-curvature="0" />
    <path
       style="fill:none;stroke:#008080;stroke-width:10;stroke-miterlimit:4;stroke-dasharray:none;stroke-opacity:1"
       d="m -27.282853,609.25034 c -7.10966,-0.63905 -14.99551,2.59188 -20.92835,8.57478 -7.12689,7.19812 -10.13098,17.03601 -7.58323,24.83359 -10.19681,4.67603 -24.13743,16.86012 -36.70418,32.07946 -8.801897,10.6781 -15.600777,15.87525 -20.079757,25.50189 -3.58339,-9.47291 -9.86195,-14.29405 -16.81601,-24.78724 -17.11588,-25.80008 -30.89297,-32.01611 -38.33238,-27.08414 -7.44089,4.93208 -5.72286,19.15037 11.39564,44.95409 17.11793,25.8031 30.98937,53.3283 38.42675,48.39132 0.6168,-0.43385 5.19827,2.63717 5.19827,2.63717 9.86462,-1.37409 29.554637,-30.15475 45.139347,-49.03993 12.52573,-15.19287 21.82731,-31.1564 24.50416,-42.05457 7.36783,1.14102 15.81746,-2.07073 22.11108,-8.40452 9.62301,-9.70593 11.3223901,-23.62365 3.79576,-31.0868 -2.61113,-2.58881 -6.12621,-4.15597 -10.1271,-4.5151 z"
       id="path4391"
       inkscape:connector-curvature="0"
       sodipodi:nodetypes="cccccccsccccccc" />
    <ellipse
       style="color:#000000;clip-rule:nonzero;display:inline;overflow:visible;visibility:visible;opacity:1;isolation:auto;mix-blend-mode:normal;color-interpolation:sRGB;color-interpolation-filters:linearRGB;solid-color:#000000;solid-opacity:1;fill:none;fill-opacity:1;fill-rule:nonzero;stroke:#008080;stroke-width:8.88784599;stroke-linecap:round;stroke-linejoin:miter;stroke-miterlimit:4;stroke-dasharray:none;stroke-dashoffset:0;stroke-opacity:1;color-rendering:auto;image-rendering:auto;shape-rendering:auto;text-rendering:auto;enable-background:accumulate"
       id="path4393"
       cx="-63.639618"
       cy="850.83673"
       rx="37.375645"
       ry="79.296974" />
    <image
       sodipodi:absref="/home/sylvia/Documents/1-walk-cycle.preview.jpg"
       y="295.52695"
       x="-165.34514"
       id="image4475"
       xlink:href="file:///home/sylvia/Documents/1-walk-cycle.preview.jpg"
       preserveAspectRatio="none"
       height="253"
       width="660" />
    <path
       style="fill:none;stroke:#008080;stroke-width:10;stroke-miterlimit:4;stroke-dasharray:none;stroke-opacity:1"
       d="m -277.27321,916.99579 a 16.162441,56.063465 17.981432 0 0 -31.54882,48.55469 16.162441,56.063465 17.981432 0 0 -7.73828,40.47072 13.637059,49.430847 55.801911 0 0 -25.97071,14.3535 13.637059,49.430847 55.801911 0 0 -26.13672,22.3457 29.7995,13.131983 79.695729 0 0 -0.31836,0.022 29.7995,13.131983 79.695729 0 0 -7.58984,31.668 29.7995,13.131983 79.695729 0 0 3.17969,11.4023 24.243662,13.637059 13.61278 0 0 -0.68946,1.7559 24.243662,13.637059 13.61278 0 0 20.35352,18.959 24.243662,13.637059 13.61278 0 0 26.77148,-7.5469 24.243662,13.637059 13.61278 0 0 -20.35351,-18.961 24.243662,13.637059 13.61278 0 0 -2.40039,-0.496 29.7995,13.131983 79.695729 0 0 -1.01953,-9.8125 29.7995,13.131983 79.695729 0 0 -3.42188,-12.0196 13.637059,49.430847 55.801911 0 0 26.95508,-14.7578 13.637059,49.430847 55.801911 0 0 32.21875,-30.9297 16.162441,56.063465 17.981432 0 0 16.90625,-36.47459 16.162441,56.063465 17.981432 0 0 1.93359,-58.31446 16.162441,56.063465 17.981432 0 0 -1.13086,-0.21875 z"
       id="ellipse4482"
       inkscape:connector-curvature="0" />
    <path
       style="fill:none;stroke:#008080;stroke-width:10;stroke-miterlimit:4;stroke-dasharray:none;stroke-opacity:1"
       d="m -152.30337,900.53415 a 56.063465,16.162441 52.903011 0 0 -3.23633,1.04492 56.063465,16.162441 52.903011 0 0 20.92579,54.46485 56.063465,16.162441 52.903011 0 0 30.62501,30.84375 49.430847,13.637059 74.465678 0 0 5.492178,34.27733 49.430847,13.637059 74.465678 0 0 18.365243,39.7833 13.131983,29.7995 82.96325 0 0 -1.97071,5.6718 13.131983,29.7995 82.96325 0 0 31.1836,9.3828 13.131983,29.7995 82.96325 0 0 27.96484,-16.6855 13.131983,29.7995 82.96325 0 0 -31.18359,-9.3809 13.131983,29.7995 82.96325 0 0 -12.71094,2.8985 49.430847,13.637059 74.465678 0 0 -5.37109,-38.9747 49.430847,13.637059 74.465678 0 0 -13.76563,-33.47654 56.063465,16.162441 52.903011 0 0 -22.847651,-43.83594 56.063465,16.162441 52.903011 0 0 -43.47072,-36.01367 z"
       id="ellipse4492"
       inkscape:connector-curvature="0" />
    <ellipse
       style="fill:none;stroke:#008080;stroke-width:10;stroke-miterlimit:4;stroke-dasharray:none;stroke-opacity:1"
       id="ellipse4498"
       transform="matrix(-0.30870876,0.95115661,-0.95115661,-0.30870876,0,0)"
       ry="16.162441"
       rx="56.063465"
       cy="-65.007172"
       cx="1000.3417" />
    <ellipse
       transform="matrix(0.82709932,-0.56205579,0.56205579,0.82709932,0,0)"
       ry="13.637059"
       rx="49.430847"
       cy="692.01971"
       cx="-818.94916"
       id="ellipse4500"
       style="color:#000000;clip-rule:nonzero;display:inline;overflow:visible;visibility:visible;opacity:1;isolation:auto;mix-blend-mode:normal;color-interpolation:sRGB;color-interpolation-filters:linearRGB;solid-color:#000000;solid-opacity:1;fill:none;fill-opacity:1;fill-rule:nonzero;stroke:#008080;stroke-width:8.88784599;stroke-linecap:butt;stroke-linejoin:miter;stroke-miterlimit:4;stroke-dasharray:none;stroke-dashoffset:0;stroke-opacity:1;color-rendering:auto;image-rendering:auto;shape-rendering:auto;text-rendering:auto;enable-background:accumulate" />
    <ellipse
       transform="matrix(0.98387171,-0.17887556,0.17887556,0.98387171,0,0)"
       ry="29.7995"
       rx="13.131983"
       cy="999.02637"
       cx="-504.01825"
       id="ellipse4502"
       style="color:#000000;clip-rule:nonzero;display:inline;overflow:visible;visibility:visible;opacity:1;isolation:auto;mix-blend-mode:normal;color-interpolation:sRGB;color-interpolation-filters:linearRGB;solid-color:#000000;solid-opacity:1;fill:none;fill-opacity:1;fill-rule:nonzero;stroke:#008080;stroke-width:8.88784599;stroke-linecap:butt;stroke-linejoin:miter;stroke-miterlimit:4;stroke-dasharray:none;stroke-dashoffset:0;stroke-opacity:1;color-rendering:auto;image-rendering:auto;shape-rendering:auto;text-rendering:auto;enable-background:accumulate" />
    <ellipse
       transform="matrix(0.97190853,0.2353589,-0.2353589,0.97190853,0,0)"
       ry="13.637059"
       rx="24.243662"
       cy="1135.1057"
       cx="-37.965168"
       id="ellipse4504"
       style="color:#000000;clip-rule:nonzero;display:inline;overflow:visible;visibility:visible;opacity:1;isolation:auto;mix-blend-mode:normal;color-interpolation:sRGB;color-interpolation-filters:linearRGB;solid-color:#000000;solid-opacity:1;fill:none;fill-opacity:1;fill-rule:nonzero;stroke:#008080;stroke-width:8.88784599;stroke-linecap:butt;stroke-linejoin:miter;stroke-miterlimit:4;stroke-dasharray:none;stroke-dashoffset:0;stroke-opacity:1;color-rendering:auto;image-rendering:auto;shape-rendering:auto;text-rendering:auto;enable-background:accumulate" />
    <ellipse
       style="fill:none;stroke:#008080;stroke-width:10;stroke-miterlimit:4;stroke-dasharray:none;stroke-opacity:1"
       id="ellipse4506"
       transform="matrix(-0.60316607,-0.79761563,0.79761563,-0.60316607,0,0)"
       ry="16.162441"
       rx="56.063465"
       cy="-711.47076"
       cx="-673.71326" />
    <ellipse
       style="color:#000000;clip-rule:nonzero;display:inline;overflow:visible;visibility:visible;opacity:1;isolation:auto;mix-blend-mode:normal;color-interpolation:sRGB;color-interpolation-filters:linearRGB;solid-color:#000000;solid-opacity:1;fill:none;fill-opacity:1;fill-rule:nonzero;stroke:#008080;stroke-width:8.88784599;stroke-linecap:butt;stroke-linejoin:miter;stroke-miterlimit:4;stroke-dasharray:none;stroke-dashoffset:0;stroke-opacity:1;color-rendering:auto;image-rendering:auto;shape-rendering:auto;text-rendering:auto;enable-background:accumulate"
       id="ellipse4508"
       cx="-966.39636"
       cy="-398.11282"
       rx="49.430847"
       ry="13.637059"
       transform="matrix(-0.26781557,-0.9634702,0.9634702,-0.26781557,0,0)" />
    <ellipse
       style="color:#000000;clip-rule:nonzero;display:inline;overflow:visible;visibility:visible;opacity:1;isolation:auto;mix-blend-mode:normal;color-interpolation:sRGB;color-interpolation-filters:linearRGB;solid-color:#000000;solid-opacity:1;fill:none;fill-opacity:1;fill-rule:nonzero;stroke:#008080;stroke-width:8.88784599;stroke-linecap:butt;stroke-linejoin:miter;stroke-miterlimit:4;stroke-dasharray:none;stroke-dashoffset:0;stroke-opacity:1;color-rendering:auto;image-rendering:auto;shape-rendering:auto;text-rendering:auto;enable-background:accumulate"
       id="ellipse4510"
       cx="-1063.7521"
       cy="-223.92648"
       rx="13.131983"
       ry="29.7995"
       transform="matrix(-0.12250595,-0.99246778,0.99246778,-0.12250595,0,0)" />
    <path
       style="color:#000000;clip-rule:nonzero;display:inline;overflow:visible;visibility:visible;opacity:1;isolation:auto;mix-blend-mode:normal;color-interpolation:sRGB;color-interpolation-filters:linearRGB;solid-color:#000000;solid-opacity:1;fill:none;fill-opacity:1;fill-rule:nonzero;stroke:#008080;stroke-width:8.88784599;stroke-linecap:butt;stroke-linejoin:miter;stroke-miterlimit:4;stroke-dasharray:none;stroke-dashoffset:0;stroke-opacity:1;color-rendering:auto;image-rendering:auto;shape-rendering:auto;text-rendering:auto;enable-background:accumulate"
       d="m 674.27285,645.27842 a 20.203051,54.043159 22.534586 0 0 0.007,-52.45053 20.203051,54.043159 22.534586 0 0 -3.47266,-0.58984 l 0,0 a 20.203051,54.043159 22.534586 0 1 -17.60165,11.7612"
       id="path4610"
       inkscape:connector-curvature="0" />
    <ellipse
       transform="matrix(-0.12250595,-0.99246778,0.99246778,-0.12250595,0,0)"
       ry="29.7995"
       rx="13.131983"
       cy="-334.34259"
       cx="-1042.998"
       id="ellipse4551"
       style="color:#000000;clip-rule:nonzero;display:inline;overflow:visible;visibility:visible;opacity:1;isolation:auto;mix-blend-mode:normal;color-interpolation:sRGB;color-interpolation-filters:linearRGB;solid-color:#000000;solid-opacity:1;fill:none;fill-opacity:1;fill-rule:nonzero;stroke:#008080;stroke-width:8.88784599;stroke-linecap:butt;stroke-linejoin:miter;stroke-miterlimit:4;stroke-dasharray:none;stroke-dashoffset:0;stroke-opacity:1;color-rendering:auto;image-rendering:auto;shape-rendering:auto;text-rendering:auto;enable-background:accumulate" />
    <flowRoot
       xml:space="preserve"
       id="flowRoot4553"
       style="font-style:normal;font-weight:normal;font-size:40px;line-height:125%;font-family:sans-serif;letter-spacing:0px;word-spacing:0px;fill:#000000;fill-opacity:1;stroke:none;stroke-width:1px;stroke-linecap:butt;stroke-linejoin:miter;stroke-opacity:1"
       transform="translate(0,552.36216)"><flowRegion
         id="flowRegion4555"><rect
           id="rect4557"
           width="113.13708"
           height="54.548229"
           x="-244.45691"
           y="290.89844" /></flowRegion><flowPara
         id="flowPara4559">Leg 1 1q11</flowPara></flowRoot>    <flowRoot
       xml:space="preserve"
       id="flowRoot4575"
       style="font-style:normal;font-weight:normal;font-size:40px;line-height:125%;font-family:sans-serif;letter-spacing:0px;word-spacing:0px;fill:#000000;fill-opacity:1;stroke:none;stroke-width:1px;stroke-linecap:butt;stroke-linejoin:miter;stroke-opacity:1"
       transform="translate(0,552.36216)"><flowRegion
         id="flowRegion4577"><rect
           id="rect4579"
           width="168.69548"
           height="66.670067"
           x="640.43671"
           y="175.74103" /></flowRegion><flowPara
         id="flowPara4581">Leg 2</flowPara><flowPara
         id="flowPara4583" /></flowRoot>    <ellipse
       style="color:#000000;clip-rule:nonzero;display:inline;overflow:visible;visibility:visible;opacity:1;isolation:auto;mix-blend-mode:normal;color-interpolation:sRGB;color-interpolation-filters:linearRGB;solid-color:#000000;solid-opacity:1;fill:none;fill-opacity:1;fill-rule:nonzero;stroke:#008080;stroke-width:8.88784599;stroke-linecap:butt;stroke-linejoin:miter;stroke-miterlimit:4;stroke-dasharray:none;stroke-dashoffset:0;stroke-opacity:1;color-rendering:auto;image-rendering:auto;shape-rendering:auto;text-rendering:auto;enable-background:accumulate"
       id="ellipse4586"
       cx="-321.95969"
       cy="1087.5669"
       rx="20.203051"
       ry="54.043159"
       transform="matrix(-0.92364836,0.38324105,0.38324105,0.92364836,0,0)" />
    <ellipse
       style="color:#000000;clip-rule:nonzero;display:inline;overflow:visible;visibility:visible;opacity:1;isolation:auto;mix-blend-mode:normal;color-interpolation:sRGB;color-interpolation-filters:linearRGB;solid-color:#000000;solid-opacity:1;fill:none;fill-opacity:1;fill-rule:nonzero;stroke:#008080;stroke-width:9.22458458;stroke-linecap:butt;stroke-linejoin:miter;stroke-miterlimit:4;stroke-dasharray:none;stroke-dashoffset:0;stroke-opacity:1;color-rendering:auto;image-rendering:auto;shape-rendering:auto;text-rendering:auto;enable-background:accumulate"
       id="ellipse4588"
       cx="-1087.3851"
       cy="506.27429"
       rx="49.442165"
       ry="14.686621"
       transform="matrix(-0.22198809,-0.97504938,0.98175035,-0.19017427,0,0)" />
    <ellipse
       ry="14.811937"
       rx="36.530216"
       cy="1216.1855"
       cx="362.35794"
       id="ellipse4590"
       style="color:#000000;clip-rule:nonzero;display:inline;overflow:visible;visibility:visible;opacity:1;isolation:auto;mix-blend-mode:normal;color-interpolation:sRGB;color-interpolation-filters:linearRGB;solid-color:#000000;solid-opacity:1;fill:none;fill-opacity:1;fill-rule:nonzero;stroke:#008080;stroke-width:9.5685482;stroke-linecap:butt;stroke-linejoin:miter;stroke-miterlimit:4;stroke-dasharray:none;stroke-dashoffset:0;stroke-opacity:1;color-rendering:auto;image-rendering:auto;shape-rendering:auto;text-rendering:auto;enable-background:accumulate"
       transform="matrix(0.93280421,-0.36038356,0.36038356,0.93280421,0,0)" />
    <ellipse
       transform="matrix(0.92364836,0.38324105,-0.38324105,0.92364836,0,0)"
       ry="54.043159"
       rx="20.203051"
       cy="570.88507"
       cx="912.75085"
       id="ellipse4592"
       style="color:#000000;clip-rule:nonzero;display:inline;overflow:visible;visibility:visible;opacity:1;isolation:auto;mix-blend-mode:normal;color-interpolation:sRGB;color-interpolation-filters:linearRGB;solid-color:#000000;solid-opacity:1;fill:none;fill-opacity:1;fill-rule:nonzero;stroke:#008080;stroke-width:8.88784599;stroke-linecap:butt;stroke-linejoin:miter;stroke-miterlimit:4;stroke-dasharray:none;stroke-dashoffset:0;stroke-opacity:1;color-rendering:auto;image-rendering:auto;shape-rendering:auto;text-rendering:auto;enable-background:accumulate" />
    <ellipse
       style="color:#000000;clip-rule:nonzero;display:inline;overflow:visible;visibility:visible;opacity:1;isolation:auto;mix-blend-mode:normal;color-interpolation:sRGB;color-interpolation-filters:linearRGB;solid-color:#000000;solid-opacity:1;fill:none;fill-opacity:1;fill-rule:nonzero;stroke:#008080;stroke-width:9.49732113;stroke-linecap:butt;stroke-linejoin:miter;stroke-miterlimit:4;stroke-dasharray:none;stroke-dashoffset:0;stroke-opacity:1;color-rendering:auto;image-rendering:auto;shape-rendering:auto;text-rendering:auto;enable-background:accumulate"
       id="ellipse4594"
       cx="-309.7001"
       cy="-1075.1204"
       rx="52.785965"
       ry="14.581744"
       transform="matrix(0.68600703,-0.72759491,-0.73927475,-0.67340393,0,0)" />
    <ellipse
       transform="matrix(0.98387171,-0.17887556,0.17887556,0.98387171,0,0)"
       ry="29.7995"
       rx="13.131983"
       cy="1077.3516"
       cx="372.92731"
       id="ellipse4596"
       style="color:#000000;clip-rule:nonzero;display:inline;overflow:visible;visibility:visible;opacity:1;isolation:auto;mix-blend-mode:normal;color-interpolation:sRGB;color-interpolation-filters:linearRGB;solid-color:#000000;solid-opacity:1;fill:none;fill-opacity:1;fill-rule:nonzero;stroke:#008080;stroke-width:8.88784599;stroke-linecap:butt;stroke-linejoin:miter;stroke-miterlimit:4;stroke-dasharray:none;stroke-dashoffset:0;stroke-opacity:1;color-rendering:auto;image-rendering:auto;shape-rendering:auto;text-rendering:auto;enable-background:accumulate" />
    <ellipse
       transform="matrix(0.97190853,0.2353589,-0.2353589,0.97190853,0,0)"
       ry="13.637059"
       rx="24.243662"
       cy="847.52124"
       cx="797.66626"
       id="ellipse4598"
       style="color:#000000;clip-rule:nonzero;display:inline;overflow:visible;visibility:visible;opacity:1;isolation:auto;mix-blend-mode:normal;color-interpolation:sRGB;color-interpolation-filters:linearRGB;solid-color:#000000;solid-opacity:1;fill:none;fill-opacity:1;fill-rule:nonzero;stroke:#008080;stroke-width:8.88784599;stroke-linecap:butt;stroke-linejoin:miter;stroke-miterlimit:4;stroke-dasharray:none;stroke-dashoffset:0;stroke-opacity:1;color-rendering:auto;image-rendering:auto;shape-rendering:auto;text-rendering:auto;enable-background:accumulate" />
    <path
       id="path4602"
       d="m 797.95489,824.57469 a 54.043159,20.203051 67.465414 0 0 -3.47266,0.58789 54.043159,20.203051 67.465414 0 0 2.05078,57.66015 54.043159,20.203051 67.465414 0 0 25.52344,38.04297 49.444693,14.678108 76.994055 0 0 2.96094,39.83985 49.444693,14.678108 76.994055 0 0 16.81445,40.44345 36.530216,14.811937 0 0 0 -4.07422,6.7675 36.530216,14.811937 0 0 0 36.5293,14.8105 36.530216,14.811937 0 0 0 36.53125,-14.8105 36.530216,14.811937 0 0 0 -36.53125,-14.81252 36.530216,14.811937 0 0 0 -17.46289,1.81836 49.444693,14.678108 76.994055 0 0 -2.96875,-39.80273 49.444693,14.678108 76.994055 0 0 -13.12305,-35.19531 54.043159,20.203051 67.465414 0 0 -6.87891,-52.58594 54.043159,20.203051 67.465414 0 0 -35.89843,-42.76367 z"
       style="color:#000000;clip-rule:nonzero;display:inline;overflow:visible;visibility:visible;opacity:1;isolation:auto;mix-blend-mode:normal;color-interpolation:sRGB;color-interpolation-filters:linearRGB;solid-color:#000000;solid-opacity:1;fill:none;fill-opacity:1;fill-rule:nonzero;stroke:#008080;stroke-width:8.88784599;stroke-linecap:butt;stroke-linejoin:miter;stroke-miterlimit:4;stroke-dasharray:none;stroke-dashoffset:0;stroke-opacity:1;color-rendering:auto;image-rendering:auto;shape-rendering:auto;text-rendering:auto;enable-background:accumulate"
       inkscape:connector-curvature="0" />
    <path
       style="color:#000000;clip-rule:nonzero;display:inline;overflow:visible;visibility:visible;opacity:1;isolation:auto;mix-blend-mode:normal;color-interpolation:sRGB;color-interpolation-filters:linearRGB;solid-color:#000000;solid-opacity:1;fill:none;fill-opacity:1;fill-rule:nonzero;stroke:#008080;stroke-width:8.88784599;stroke-linecap:butt;stroke-linejoin:miter;stroke-miterlimit:4;stroke-dasharray:none;stroke-dashoffset:0;stroke-opacity:1;color-rendering:auto;image-rendering:auto;shape-rendering:auto;text-rendering:auto;enable-background:accumulate"
       d="M 208.54297 10.988281 C 190.69217 10.987281 176.22085 39.325403 176.2207 74.283203 C 176.239 101.4458 185.10502 125.55721 198.25391 134.20312 C 197.93362 136.6075 197.7704 139.10632 197.76953 141.61914 C 197.77453 145.41446 198.14917 149.15987 198.86719 152.58398 C 196.0166 154.44677 193.28274 157.00034 190.72266 160.19141 C 179.67921 162.24474 164.5642 168.31131 149.66602 176.66992 C 136.27919 184.18383 124.31391 192.85088 116.5625 200.64844 C 115.28767 201.16762 114.20558 202.343 113.3457 204.14258 C 108.43542 209.87517 106.62761 214.4905 108.18555 217.31641 C 108.74369 218.28019 109.69605 219.01837 111.02539 219.51758 C 111.10729 230.3531 113.32927 244.3674 117.21289 258.54297 C 120.6204 270.94797 125.07594 282.65397 129.83203 291.69727 C 126.25716 296.38337 124.25887 302.60683 124.25 309.08203 C 124.24996 323.02929 133.29524 334.33594 144.45312 334.33594 C 155.61103 334.33594 164.65629 323.02929 164.65625 309.08203 C 164.65125 299.04043 159.88794 289.95651 152.52344 285.94531 C 152.04282 275.65771 149.89016 263.12929 146.4375 250.52539 C 142.97178 237.90921 138.42408 226.02312 133.58203 216.92578 C 143.02273 213.90458 153.87347 209.05065 164.49414 203.09766 C 167.76263 201.25782 170.952 199.3254 174.05078 197.34961 C 184.77242 167.72248 186.52381 169.39649 190.91992 160.58984 L 174.50586 197.06445 C 174.77702 196.89051 175.06067 196.72355 175.33008 196.54883 C 173.30415 206.24849 172.24911 216.69518 172.22852 227.25977 C 172.22869 254.01083 178.72615 277.61329 188.63281 291.73242 C 188.0402 292.36933 187.4468 293.03373 186.85352 293.72461 L 186.51562 293.06445 C 179.74939 300.93123 173.24618 311.95018 168.21875 324.06641 C 162.46853 337.94429 159.13983 352.08418 159.03125 363.09375 C 158.94165 366.44187 159.13978 369.46376 159.62109 372.08984 C 151.56244 377.50443 142.56947 385.32522 134.17773 394.2168 C 126.10885 402.78384 119.07969 411.83136 114.20703 419.92188 C 111.87486 421.70153 110.09953 425.19015 109.11914 429.91992 C 107.80762 433.2626 107.17715 436.09542 107.25391 438.30078 C 107.12443 440.31792 107.4893 441.89048 108.33789 442.97266 C 108.47543 445.72009 108.80231 448.53644 109.30859 451.33594 C 112.2525 467.52981 120.42456 479.60555 127.56055 478.30664 C 127.8065 478.25814 128.04943 478.19368 128.28906 478.11328 C 130.47017 479.0664 132.79423 479.84548 135.18164 480.42383 C 148.19481 483.57558 160.18169 480.19673 161.95508 472.87695 C 162.11914 472.15708 162.17923 471.41375 162.13477 470.6543 C 162.69788 463.55995 153.79213 455.86218 141.60156 452.90625 C 139.73779 452.46025 137.85158 452.14031 135.98242 451.95312 C 135.8091 449.85807 135.52949 447.73773 135.14844 445.62891 C 134.50272 442.1167 133.58448 438.6865 132.4375 435.50195 C 139.94444 430.17821 148.09959 422.95547 155.73828 414.86523 C 168.34944 401.48197 178.09061 387.29013 181.45117 377.4043 C 190.07249 369.95488 199.00005 356.3004 205.53906 340.5625 C 205.81202 339.88368 206.07966 339.2032 206.3418 338.52148 C 213.1068 353.51513 221.85905 366.04506 230.10742 372.54492 C 228.49938 382.33141 229.5978 397.11081 233.06836 412.38477 C 237.01452 429.69735 243.4326 445.1346 249.88281 452.82812 L 251.70312 452.07227 A 14.811937 36.530216 68.876246 0 0 246.51172 464.67773 A 14.811937 36.530216 68.876246 0 0 285.92578 465.33008 A 14.811937 36.530216 68.876246 0 0 314.66406 438.34766 A 14.811937 36.530216 68.876246 0 0 275.25 437.69727 A 14.811937 36.530216 68.876246 0 0 265.37891 442.24414 C 266.11605 432.69941 264.89155 419.9355 261.90625 406.79883 C 258.75142 392.96162 253.97159 380.14238 248.7832 371.60352 C 253.56848 361.64689 250.79898 340.47531 241.9043 319.01758 C 238.25842 310.24689 233.81424 301.99381 229.01953 295.08984 C 231.90609 291.64584 234.55915 287.45562 236.90039 282.61719 C 240.91216 274.32642 244.01522 264.17291 245.91016 252.85352 C 253.56692 264.47633 259.76228 271.92324 263.93359 269.1543 C 264.55039 268.72045 269.13281 271.79102 269.13281 271.79102 C 278.99743 270.41693 298.68677 241.63713 314.27148 222.75195 C 326.79721 207.55908 336.09854 191.59544 338.77539 180.69727 C 346.14322 181.83829 354.5931 178.62676 360.88672 172.29297 C 370.50973 162.58704 372.20827 148.67018 364.68164 141.20703 C 362.07051 138.61822 358.55558 137.05054 354.55469 136.69141 C 347.44503 136.05236 339.55979 139.28274 333.62695 145.26562 C 326.50006 152.46375 323.49522 162.30203 326.04297 170.09961 C 315.84616 174.77564 301.90659 186.96035 289.33984 202.17969 C 280.53794 212.85779 273.73875 218.055 269.25977 227.68164 C 265.67638 218.20873 259.39742 213.38577 252.44336 202.89258 C 249.39564 198.29852 246.45578 194.3373 243.63672 190.9375 C 242.58221 186.79621 241.36162 182.85394 239.97266 179.17773 C 234.91596 165.79398 227.75834 155.79882 219.3457 151.42969 C 219.91584 148.32184 220.2112 144.98789 220.21484 141.61914 C 220.20984 138.89937 220.01468 136.19881 219.63672 133.61914 C 231.80771 124.8733 240.13241 102.73176 240.7832 77.375 C 241.40654 77.4067 242.03213 77.423581 242.6582 77.425781 C 254.55932 77.426211 264.2074 72.200346 264.20703 65.753906 C 264.20741 59.307466 254.55933 54.081601 242.6582 54.082031 C 241.48543 54.084031 240.31488 54.13733 239.1582 54.242188 C 234.7598 28.438437 222.43407 11.024351 208.54297 10.988281 z M 174.50586 197.06445 C 174.35607 197.16055 174.20108 197.25378 174.05078 197.34961 C 173.61837 198.54448 173.19877 199.69634 172.73633 200.99609 L 174.50586 197.06445 z M 209.1875 192.82812 L 245.5 250.68945 C 228.45301 232.46722 217.97622 212.82859 209.1875 192.82812 z "
       transform="translate(0,552.36216)"
       id="path4604" />
    <path
       style="color:#000000;clip-rule:nonzero;display:inline;overflow:visible;visibility:visible;opacity:1;isolation:auto;mix-blend-mode:normal;color-interpolation:sRGB;color-interpolation-filters:linearRGB;solid-color:#000000;solid-opacity:1;fill:none;fill-opacity:1;fill-rule:nonzero;stroke:#008080;stroke-width:8.88784599;stroke-linecap:butt;stroke-linejoin:miter;stroke-miterlimit:4;stroke-dasharray:none;stroke-dashoffset:0;stroke-opacity:1;color-rendering:auto;image-rendering:auto;shape-rendering:auto;text-rendering:auto;enable-background:accumulate"
       d="m 903.2981,805.88272 a 54.043159,20.203051 67.465414 0 0 -3.47266,0.58984 54.043159,20.203051 67.465414 0 0 2.05078,57.66016 54.043159,20.203051 67.465414 0 0 25.52344,38.04101 49.444693,14.678108 76.994055 0 0 2.96094,39.8418 49.444693,14.678108 76.994055 0 0 19.30078,43.0079 14.811937,36.530216 68.876246 0 0 -1.07617,7.2656 14.811937,36.530216 68.876246 0 0 39.41406,0.6523 14.811937,36.530216 68.876246 0 0 28.73633,-26.98244 14.811937,36.530216 68.876246 0 0 -39.41211,-0.65234 14.811937,36.530216 68.876246 0 0 -14.71289,7.37304 49.444693,14.678108 76.994055 0 0 -3.41211,-36.25 49.444693,14.678108 76.994055 0 0 -13.125,-35.19336 54.043159,20.203051 67.465414 0 0 -6.87695,-52.58984 54.043159,20.203051 67.465414 0 0 -35.89844,-42.76367 z"
       id="ellipse4896"
       inkscape:connector-curvature="0" />
    <path
       style="color:#000000;clip-rule:nonzero;display:inline;overflow:visible;visibility:visible;opacity:1;isolation:auto;mix-blend-mode:normal;color-interpolation:sRGB;color-interpolation-filters:linearRGB;solid-color:#000000;solid-opacity:1;fill:none;fill-opacity:1;fill-rule:nonzero;stroke:#008080;stroke-width:8.88799953;stroke-linecap:round;stroke-linejoin:miter;stroke-miterlimit:4;stroke-dasharray:none;stroke-dashoffset:0;stroke-opacity:1;color-rendering:auto;image-rendering:auto;shape-rendering:auto;text-rendering:auto;enable-background:accumulate"
       d="m 227.74707,849.48653 c 0.85742,7.07138 -10.80253,18.14325 -19.72417,35.34363"
       id="path4945"
       inkscape:connector-curvature="0"
       sodipodi:nodetypes="cc" />
  </g>
</svg>
